#!OML:ASF F:\VICON\USERDATA\INSTALL\rory3\rory3.ASF
:FULLY-SPECIFIED
:DEGREES
322
root -0.637621 15.377 -6.29199 -161.435 3.15353 178.423
lowerback 3.66464 3.41043 -1.36888
upperback 1.1601 4.5252 -0.456737
thorax -0.927008 2.27583 0.0948476
lowerneck -9.24361 5.84648 -0.662195
upperneck 49.5283 -3.82188 4.46047
head 22.33 -3.6059 0.757948
rclavicle -2.64384e-014 7.95139e-015
rhumerus 49.1169 50.0691 -56.6935
rradius 40.3008
rwrist -6.12561
rhand 3.95035 15.8389
rfingers 7.12502
rthumb 29.3683 -11.8609
lclavicle -2.64384e-014 7.95139e-015
lhumerus 80.8788 -45.9211 33.0171
lradius 44.5574
lwrist -0.367904
lhand 4.79658 22.1917
lfingers 7.12502
lthumb 30.1759 49.747
rfemur -56.8459 -27.9629 33.5361
rtibia 86.6537
rfoot -0.904483 6.00272
rtoes -32.1891
lfemur -61.9957 17.9255 -44.7519
ltibia 53.7966
lfoot -23.7766 16.0233
ltoes -23.3046
323
root -0.627718 15.4496 -6.27822 -162.035 1.19572 178.343
lowerback 3.99642 2.67593 -1.01502
upperback 1.15946 3.56259 -0.0191182
thorax -1.10695 1.79647 0.372434
lowerneck -8.7719 5.86073 -0.711274
upperneck 49.2965 -3.47551 4.11589
head 21.8835 -3.52843 0.655045
rclavicle -3.27995e-014 1.19271e-014
rhumerus 59.4451 51.2272 -43.2889
rradius 43.2658
rwrist -14.205
rhand 2.93268 14.3477
rfingers 7.12502
rthumb 28.3962 -13.5183
lclavicle -3.27995e-014 1.19271e-014
lhumerus 83.398 -44.2142 29.5421
lradius 47.5306
lwrist 4.57386
lhand 1.62641 25.6488
lfingers 7.12502
lthumb 27.1473 53.7163
rfemur -54.7088 -29.2608 33.2011
rtibia 85.5261
rfoot -3.95022 3.92954
rtoes -30.7757
lfemur -59.9783 16.2365 -43.5548
ltibia 52.6214
lfoot -23.3641 15.5707
ltoes -20.3247
324
root -0.625564 15.4814 -6.24932 -160.677 3.06412 179.384
lowerback 1.70969 3.1795 -1.04511
upperback 1.06006 4.24548 0.367414
thorax 0.0261169 2.12617 0.885837
lowerneck -8.24651 5.80044 -1.09293
upperneck 48.737 -3.03988 3.95
head 21.0965 -3.4144 0.744294
rclavicle 4.49253e-014 7.95139e-016
rhumerus 55.8098 47.8259 -50.723
rradius 42.5748
rwrist -8.87166
rhand 7.59505 16.8709
rfingers 7.12502
rthumb 32.8419 -10.1625
lclavicle 4.49253e-014 7.95139e-016
lhumerus 84.2619 -41.6923 28.6099
lradius 49.4546
lwrist 6.33461
lhand 1.04508 27.1323
lfingers 7.12502
lthumb 26.591 55.2854
rfemur -55.3109 -25.9972 33.8581
rtibia 84.7196
rfoot -5.63269 1.48358
rtoes -29.5838
lfemur -61.6637 16.5888 -43.0641
ltibia 52.0003
lfoot -23.6708 16.1644
ltoes -16.9408
325
root -0.613217 15.5821 -6.2915 -162.195 1.11827 179.002
lowerback 1.35293 2.28903 -1.04912
upperback 2.143 3.10425 0.829991
thorax 1.33698 1.55678 1.43011
lowerneck -8.57208 5.75475 -1.22302
upperneck 48.3709 -2.48539 3.45757
head 20.8536 -3.21675 0.633687
rclavicle 9.14409e-015 -1.59028e-015
rhumerus 62.4656 46.7977 -43.4683
rradius 42.9696
rwrist -12.5576
rhand 6.25399 17.1429
rfingers 7.12502
rthumb 31.5653 -10.1493
lclavicle 9.14409e-015 -1.59028e-015
lhumerus 84.5449 -38.7427 28.7387
lradius 50.3877
lwrist 6.59987
lhand 1.79334 26.5847
lfingers 7.12502
lthumb 27.3069 54.6272
rfemur -51.6598 -27.7947 32.6756
rtibia 83.2133
rfoot -8.66218 -0.678537
rtoes -30.5695
lfemur -58.439 15.5674 -42.0233
ltibia 50.9509
lfoot -23.9232 15.9021
ltoes -15.0634
326
root -0.618714 15.6254 -6.25568 -161.865 0.559302 179.578
lowerback 0.695596 2.09683 -0.156808
upperback 1.98738 2.8431 1.03137
thorax 1.5862 1.43472 1.16337
lowerneck -8.53203 5.7741 -1.14437
upperneck 48.3324 -2.35543 3.25626
head 20.7983 -3.1804 0.537397
rclavicle -5.36719e-015 -8.74653e-015
rhumerus 62.7732 44.7663 -45.0938
rradius 42.7008
rwrist -12.1996
rhand 6.69771 17.4925
rfingers 7.12502
rthumb 31.9879 -9.71583
lclavicle -5.36719e-015 -8.74653e-015
lhumerus 84.6966 -36.7439 29.1188
lradius 50.8596
lwrist 6.74498
lhand 3.10091 24.8711
lfingers 7.12502
lthumb 28.557 52.7102
rfemur -51.052 -27.4757 33.1548
rtibia 82.1406
rfoot -10.2803 -4.33638
rtoes -31.1813
lfemur -58.2959 14.4526 -41.0209
ltibia 50.3017
lfoot -23.7608 16.6294
ltoes -15.2679
327
root -0.599988 15.6707 -6.24119 -161.667 0.698725 179.868
lowerback 1.33737 2.20659 0.110034
upperback 0.836766 2.97091 0.952631
thorax 0.0627891 1.49527 0.874787
lowerneck -7.49584 6.02252 -1.14686
upperneck 48.6342 -2.66865 3.76443
head 20.7477 -3.37802 0.709053
rclavicle 3.18055e-015 -1.51076e-014
rhumerus 63.5002 44.2239 -44.1812
rradius 43.0159
rwrist -13.9448
rhand 6.4863 17.2884
rfingers 7.12502
rthumb 31.7866 -9.96009
lclavicle 3.18055e-015 -1.51076e-014
lhumerus 84.3813 -36.2985 29.5615
lradius 51.3505
lwrist 7.70079
lhand 3.69275 23.6674
lfingers 7.12502
lthumb 29.1223 51.4101
rfemur -50.11 -26.2387 33.1106
rtibia 80.9746
rfoot -11.5072 -7.63675
rtoes -26.8633
lfemur -58.0763 13.9464 -40.331
ltibia 49.5373
lfoot -23.365 17.1291
ltoes -14.9112
328
root -0.587337 15.7169 -6.23664 -161.497 0.725773 180.334
lowerback 0.575465 2.23935 0.547871
upperback 0.811815 3.01311 1.07957
thorax 0.478719 1.51869 0.793045
lowerneck -7.61166 5.96731 -1.4333
upperneck 48.5379 -2.67136 3.90162
head 20.7093 -3.40949 0.833686
rclavicle 2.38542e-015 -2.46493e-014
rhumerus 66.1835 42.5456 -41.58
rradius 43.3805
rwrist -15.518
rhand 6.64698 17.1194
rfingers 7.12502
rthumb 31.9396 -10.0986
lclavicle 2.38542e-015 -2.46493e-014
lhumerus 85.1343 -34.291 28.8911
lradius 52.4964
lwrist 9.36864
lhand 3.4661 24.0661
lfingers 7.12502
lthumb 28.9059 51.846
rfemur -49.0524 -25.1941 33.2263
rtibia 79.7211
rfoot -13.3135 -10.5253
rtoes -24.5218
lfemur -57.8948 13.6019 -39.5537
ltibia 48.994
lfoot -23.6764 17.9017
ltoes -17.2489
